<svg width="24" height="24" viewBox="0 0 24 24" fill="none" xmlns="http://www.w3.org/2000/svg">
<path fill-rule="evenodd" clip-rule="evenodd" d="M12.9001 1.50004C15.3001 1.65004 17.5501 2.85004 19.2001 4.50004C21.1501 6.60004 22.2001 9.15004 22.2001 12.15C22.2001 14.55 21.3001 16.8 19.8001 18.75C18.3001 20.55 16.2001 21.9 13.8001 22.35C11.4001 22.8 9.00006 22.5 6.90006 21.3C4.80006 20.1 3.15006 18.3 2.25006 16.05C1.35006 13.8 1.20006 11.25 1.95006 9.00004C2.70006 6.60004 4.05006 4.65004 6.15006 3.30004C8.10006 1.95004 10.5001 1.35004 12.9001 1.50004ZM13.6501 20.85C15.6001 20.4 17.4001 19.35 18.7501 17.7C19.9501 16.05 20.7001 14.1 20.5501 12C20.5501 9.60004 19.6501 7.20004 18.0001 5.55004C16.5001 4.05004 14.7001 3.15004 12.6001 3.00004C10.6501 2.85004 8.55006 3.30004 6.90006 4.50004C5.25006 5.70004 4.05006 7.35004 3.45006 9.45004C2.85006 11.4 2.85006 13.5 3.75006 15.45C4.65006 17.4 6.00006 18.9 7.80006 19.95C9.60006 21 11.7001 21.3 13.6501 20.85ZM11.8501 11.25L15.4501 7.50004L16.5001 8.55004L12.9001 12.3L16.5001 16.05L15.4501 17.1L11.8501 13.35L8.25006 17.1L7.20006 16.05L10.8001 12.3L7.20006 8.55004L8.25006 7.50004L11.8501 11.25Z" fill="#F24E1E"/>
</svg>
