<svg width="24" height="24" viewBox="0 0 24 24" fill="none" xmlns="http://www.w3.org/2000/svg">
<g clip-path="url(#clip0_310_32)">
<path d="M12 24C8.8174 24 5.76516 22.7357 3.51472 20.4853C1.26428 18.2348 0 15.1826 0 12C0 8.8174 1.26428 5.76516 3.51472 3.51472C5.76516 1.26428 8.8174 0 12 0C15.1826 0 18.2348 1.26428 20.4853 3.51472C22.7357 5.76516 24 8.8174 24 12C24 15.1826 22.7357 18.2348 20.4853 20.4853C18.2348 22.7357 15.1826 24 12 24ZM9.6 18L20.4 7.8L18.6 6L9.6 14.4L5.4 10.2L3.6 12L9.6 18Z" fill="#0FA958"/>
</g>
<defs>
<clipPath id="clip0_310_32">
<rect width="24" height="24" fill="white"/>
</clipPath>
</defs>
</svg>
